<svg width="512" height="512" xmlns="http://www.w3.org/2000/svg">

 <g>
  <title>background</title>
  <rect fill="none" id="canvas_background" height="402" width="582" y="-1" x="-1"/>
 </g>
 <g>
  <title>Layer 1</title>
  <path stroke="null" id="svg_2" fill-rule="evenodd" clip-rule="evenodd" fill="#B11016" d="m452.698471,126.591994c-70.260729,-109.220819 -215.747848,-140.811059 -324.982398,-70.566558c-109.219571,70.260729 -140.79608,215.747848 -70.564061,324.982398c70.260729,109.219571 215.747848,140.811059 324.968667,70.564061c109.232053,-70.258232 140.823542,-215.7466 70.577792,-324.979901z"/>
  <path stroke="null" id="svg_4" fill-rule="evenodd" clip-rule="evenodd" fill="#FFFFFF" d="m383.279632,149.279457c-14.022354,-12.552258 -32.780332,-20.759784 -50.484601,-29.517231c-39.333242,-19.458428 -85.819087,-29.707821 -145.329417,-29.097203c-3.731687,0.211228 -7.464588,0.422455 -11.196275,0.632469c-7.243649,1.220021 -18.537039,0.502576 -24.713624,3.16113c-7.615118,3.280097 -6.980221,30.365783 -4.647006,39.850386c2.909842,10.856368 16.130987,8.674897 29.573072,9.36685c22.978888,0.348404 41.43095,-1.182389 49.006008,18.67543c2.630633,6.898886 1.901048,17.573162 1.901048,26.98857c-0.070409,15.107626 -0.140818,30.222536 -0.211228,45.331377c-0.140818,13.281843 -0.281637,26.568542 -0.422455,39.849172c-0.774501,37.17605 -1.549002,74.363027 -2.323503,111.537863c-3.771747,25.003759 5.320749,43.952328 18.16557,53.343456c3.134423,2.29194 10.884289,8.906762 17.110646,7.379611c8.920116,-2.188755 8.239089,-10.806596 8.237875,-21.927606l0,-236.988824c0,-7.172025 -1.080417,-16.21475 0.633683,-22.350061c6.30405,-22.562502 30.677768,-20.606827 56.187745,-16.656628c11.475483,0.842482 22.954609,1.687393 34.430092,2.529875c5.576893,0.872831 17.996831,2.824865 23.025018,1.476165c0.747794,-1.051282 1.120477,-1.574495 1.057352,-3.584799z"/>
  <polyline stroke-linecap="round" id="svg_7" points="84.62607615894831,195.8679118870361 85.43254179872451,196.67437752681218 " fill-opacity="null" stroke-opacity="null" stroke-width="null" stroke="null" fill="none"/>
 </g>
</svg>